M48
;DRILL file {KiCad 4.0.7} date Friday, 14 September '14e' 2018 'PM' 'le18' 22:04:18
;FORMAT={-:-/ absolute / inch / decimal}
FMAT,2
INCH,TZ
T1C0.024
T2C0.031
T3C0.033
T4C0.039
T5C0.039
T6C0.047
%
G90
G05
M72
T2
X4.7Y-2.9
X4.7Y-2.9984
X4.7Y-3.2016
X4.7Y-3.3
T3
X4.4675Y-2.9516
X4.4675Y-3.1484
T4
X5.1Y-2.975
X5.1Y-3.075
X5.1Y-3.175
X5.725Y-3.
X5.725Y-3.1
X5.975Y-3.
X5.975Y-3.1
X6.2Y-3.
X6.2Y-3.1
T5
X5.4Y-2.9
X5.5Y-2.9
T6
X5.4Y-3.1
X5.4Y-3.3
T1
X4.3474Y-2.9122G85X4.375Y-2.9122
G05
X4.375Y-3.1878G85X4.3474Y-3.1878
G05
T0
M30
