G04 #@! TF.FileFunction,Legend,Top*
%FSLAX46Y46*%
G04 Gerber Fmt 4.6, Leading zero omitted, Abs format (unit mm)*
G04 Created by KiCad (PCBNEW 4.0.7) date Friday, 14 September '14e' 2018 'PM' 'le44' 22:03:44*
%MOMM*%
%LPD*%
G01*
G04 APERTURE LIST*
%ADD10C,0.100000*%
%ADD11C,0.120000*%
%ADD12C,0.150000*%
G04 APERTURE END LIST*
D10*
D11*
X120559723Y-77215722D02*
G75*
G03X120560000Y-72604420I-1179723J2305722D01*
G01*
X118200277Y-77215722D02*
G75*
G02X118200000Y-72604420I1179723J2305722D01*
G01*
X118200277Y-77215722D02*
G75*
G03X120560000Y-77215580I1179723J2305722D01*
G01*
X121930000Y-74910000D02*
X116830000Y-74910000D01*
X121930000Y-74950000D02*
X116830000Y-74950000D01*
X121929000Y-74990000D02*
X116831000Y-74990000D01*
X121928000Y-75030000D02*
X116832000Y-75030000D01*
X121926000Y-75070000D02*
X116834000Y-75070000D01*
X121923000Y-75110000D02*
X116837000Y-75110000D01*
X121919000Y-75150000D02*
X116841000Y-75150000D01*
X121915000Y-75190000D02*
X120360000Y-75190000D01*
X118400000Y-75190000D02*
X116845000Y-75190000D01*
X121911000Y-75230000D02*
X120360000Y-75230000D01*
X118400000Y-75230000D02*
X116849000Y-75230000D01*
X121905000Y-75270000D02*
X120360000Y-75270000D01*
X118400000Y-75270000D02*
X116855000Y-75270000D01*
X121899000Y-75310000D02*
X120360000Y-75310000D01*
X118400000Y-75310000D02*
X116861000Y-75310000D01*
X121893000Y-75350000D02*
X120360000Y-75350000D01*
X118400000Y-75350000D02*
X116867000Y-75350000D01*
X121886000Y-75390000D02*
X120360000Y-75390000D01*
X118400000Y-75390000D02*
X116874000Y-75390000D01*
X121878000Y-75430000D02*
X120360000Y-75430000D01*
X118400000Y-75430000D02*
X116882000Y-75430000D01*
X121869000Y-75470000D02*
X120360000Y-75470000D01*
X118400000Y-75470000D02*
X116891000Y-75470000D01*
X121860000Y-75510000D02*
X120360000Y-75510000D01*
X118400000Y-75510000D02*
X116900000Y-75510000D01*
X121850000Y-75550000D02*
X120360000Y-75550000D01*
X118400000Y-75550000D02*
X116910000Y-75550000D01*
X121840000Y-75590000D02*
X120360000Y-75590000D01*
X118400000Y-75590000D02*
X116920000Y-75590000D01*
X121828000Y-75631000D02*
X120360000Y-75631000D01*
X118400000Y-75631000D02*
X116932000Y-75631000D01*
X121816000Y-75671000D02*
X120360000Y-75671000D01*
X118400000Y-75671000D02*
X116944000Y-75671000D01*
X121804000Y-75711000D02*
X120360000Y-75711000D01*
X118400000Y-75711000D02*
X116956000Y-75711000D01*
X121790000Y-75751000D02*
X120360000Y-75751000D01*
X118400000Y-75751000D02*
X116970000Y-75751000D01*
X121776000Y-75791000D02*
X120360000Y-75791000D01*
X118400000Y-75791000D02*
X116984000Y-75791000D01*
X121762000Y-75831000D02*
X120360000Y-75831000D01*
X118400000Y-75831000D02*
X116998000Y-75831000D01*
X121746000Y-75871000D02*
X120360000Y-75871000D01*
X118400000Y-75871000D02*
X117014000Y-75871000D01*
X121730000Y-75911000D02*
X120360000Y-75911000D01*
X118400000Y-75911000D02*
X117030000Y-75911000D01*
X121713000Y-75951000D02*
X120360000Y-75951000D01*
X118400000Y-75951000D02*
X117047000Y-75951000D01*
X121695000Y-75991000D02*
X120360000Y-75991000D01*
X118400000Y-75991000D02*
X117065000Y-75991000D01*
X121676000Y-76031000D02*
X120360000Y-76031000D01*
X118400000Y-76031000D02*
X117084000Y-76031000D01*
X121656000Y-76071000D02*
X120360000Y-76071000D01*
X118400000Y-76071000D02*
X117104000Y-76071000D01*
X121636000Y-76111000D02*
X120360000Y-76111000D01*
X118400000Y-76111000D02*
X117124000Y-76111000D01*
X121614000Y-76151000D02*
X120360000Y-76151000D01*
X118400000Y-76151000D02*
X117146000Y-76151000D01*
X121592000Y-76191000D02*
X120360000Y-76191000D01*
X118400000Y-76191000D02*
X117168000Y-76191000D01*
X121569000Y-76231000D02*
X120360000Y-76231000D01*
X118400000Y-76231000D02*
X117191000Y-76231000D01*
X121545000Y-76271000D02*
X120360000Y-76271000D01*
X118400000Y-76271000D02*
X117215000Y-76271000D01*
X121520000Y-76311000D02*
X120360000Y-76311000D01*
X118400000Y-76311000D02*
X117240000Y-76311000D01*
X121493000Y-76351000D02*
X120360000Y-76351000D01*
X118400000Y-76351000D02*
X117267000Y-76351000D01*
X121466000Y-76391000D02*
X120360000Y-76391000D01*
X118400000Y-76391000D02*
X117294000Y-76391000D01*
X121438000Y-76431000D02*
X120360000Y-76431000D01*
X118400000Y-76431000D02*
X117322000Y-76431000D01*
X121408000Y-76471000D02*
X120360000Y-76471000D01*
X118400000Y-76471000D02*
X117352000Y-76471000D01*
X121377000Y-76511000D02*
X120360000Y-76511000D01*
X118400000Y-76511000D02*
X117383000Y-76511000D01*
X121345000Y-76551000D02*
X120360000Y-76551000D01*
X118400000Y-76551000D02*
X117415000Y-76551000D01*
X121312000Y-76591000D02*
X120360000Y-76591000D01*
X118400000Y-76591000D02*
X117448000Y-76591000D01*
X121277000Y-76631000D02*
X120360000Y-76631000D01*
X118400000Y-76631000D02*
X117483000Y-76631000D01*
X121241000Y-76671000D02*
X120360000Y-76671000D01*
X118400000Y-76671000D02*
X117519000Y-76671000D01*
X121203000Y-76711000D02*
X120360000Y-76711000D01*
X118400000Y-76711000D02*
X117557000Y-76711000D01*
X121163000Y-76751000D02*
X120360000Y-76751000D01*
X118400000Y-76751000D02*
X117597000Y-76751000D01*
X121122000Y-76791000D02*
X120360000Y-76791000D01*
X118400000Y-76791000D02*
X117638000Y-76791000D01*
X121079000Y-76831000D02*
X120360000Y-76831000D01*
X118400000Y-76831000D02*
X117681000Y-76831000D01*
X121034000Y-76871000D02*
X120360000Y-76871000D01*
X118400000Y-76871000D02*
X117726000Y-76871000D01*
X120986000Y-76911000D02*
X120360000Y-76911000D01*
X118400000Y-76911000D02*
X117774000Y-76911000D01*
X120936000Y-76951000D02*
X120360000Y-76951000D01*
X118400000Y-76951000D02*
X117824000Y-76951000D01*
X120884000Y-76991000D02*
X120360000Y-76991000D01*
X118400000Y-76991000D02*
X117876000Y-76991000D01*
X120828000Y-77031000D02*
X120360000Y-77031000D01*
X118400000Y-77031000D02*
X117932000Y-77031000D01*
X120770000Y-77071000D02*
X120360000Y-77071000D01*
X118400000Y-77071000D02*
X117990000Y-77071000D01*
X120707000Y-77111000D02*
X120360000Y-77111000D01*
X118400000Y-77111000D02*
X118053000Y-77111000D01*
X120641000Y-77151000D02*
X118119000Y-77151000D01*
X120569000Y-77191000D02*
X118191000Y-77191000D01*
X120492000Y-77231000D02*
X118268000Y-77231000D01*
X120408000Y-77271000D02*
X118352000Y-77271000D01*
X120314000Y-77311000D02*
X118446000Y-77311000D01*
X120209000Y-77351000D02*
X118551000Y-77351000D01*
X120087000Y-77391000D02*
X118673000Y-77391000D01*
X119939000Y-77431000D02*
X118821000Y-77431000D01*
X119734000Y-77471000D02*
X119026000Y-77471000D01*
X119380000Y-71460000D02*
X119380000Y-72660000D01*
X120030000Y-72060000D02*
X118730000Y-72060000D01*
X118200277Y-80264278D02*
G75*
G03X118200000Y-84875580I1179723J-2305722D01*
G01*
X120559723Y-80264278D02*
G75*
G02X120560000Y-84875580I-1179723J-2305722D01*
G01*
X120559723Y-80264278D02*
G75*
G03X118200000Y-80264420I-1179723J-2305722D01*
G01*
X116830000Y-82570000D02*
X121930000Y-82570000D01*
X116830000Y-82530000D02*
X121930000Y-82530000D01*
X116831000Y-82490000D02*
X121929000Y-82490000D01*
X116832000Y-82450000D02*
X121928000Y-82450000D01*
X116834000Y-82410000D02*
X121926000Y-82410000D01*
X116837000Y-82370000D02*
X121923000Y-82370000D01*
X116841000Y-82330000D02*
X121919000Y-82330000D01*
X116845000Y-82290000D02*
X118400000Y-82290000D01*
X120360000Y-82290000D02*
X121915000Y-82290000D01*
X116849000Y-82250000D02*
X118400000Y-82250000D01*
X120360000Y-82250000D02*
X121911000Y-82250000D01*
X116855000Y-82210000D02*
X118400000Y-82210000D01*
X120360000Y-82210000D02*
X121905000Y-82210000D01*
X116861000Y-82170000D02*
X118400000Y-82170000D01*
X120360000Y-82170000D02*
X121899000Y-82170000D01*
X116867000Y-82130000D02*
X118400000Y-82130000D01*
X120360000Y-82130000D02*
X121893000Y-82130000D01*
X116874000Y-82090000D02*
X118400000Y-82090000D01*
X120360000Y-82090000D02*
X121886000Y-82090000D01*
X116882000Y-82050000D02*
X118400000Y-82050000D01*
X120360000Y-82050000D02*
X121878000Y-82050000D01*
X116891000Y-82010000D02*
X118400000Y-82010000D01*
X120360000Y-82010000D02*
X121869000Y-82010000D01*
X116900000Y-81970000D02*
X118400000Y-81970000D01*
X120360000Y-81970000D02*
X121860000Y-81970000D01*
X116910000Y-81930000D02*
X118400000Y-81930000D01*
X120360000Y-81930000D02*
X121850000Y-81930000D01*
X116920000Y-81890000D02*
X118400000Y-81890000D01*
X120360000Y-81890000D02*
X121840000Y-81890000D01*
X116932000Y-81849000D02*
X118400000Y-81849000D01*
X120360000Y-81849000D02*
X121828000Y-81849000D01*
X116944000Y-81809000D02*
X118400000Y-81809000D01*
X120360000Y-81809000D02*
X121816000Y-81809000D01*
X116956000Y-81769000D02*
X118400000Y-81769000D01*
X120360000Y-81769000D02*
X121804000Y-81769000D01*
X116970000Y-81729000D02*
X118400000Y-81729000D01*
X120360000Y-81729000D02*
X121790000Y-81729000D01*
X116984000Y-81689000D02*
X118400000Y-81689000D01*
X120360000Y-81689000D02*
X121776000Y-81689000D01*
X116998000Y-81649000D02*
X118400000Y-81649000D01*
X120360000Y-81649000D02*
X121762000Y-81649000D01*
X117014000Y-81609000D02*
X118400000Y-81609000D01*
X120360000Y-81609000D02*
X121746000Y-81609000D01*
X117030000Y-81569000D02*
X118400000Y-81569000D01*
X120360000Y-81569000D02*
X121730000Y-81569000D01*
X117047000Y-81529000D02*
X118400000Y-81529000D01*
X120360000Y-81529000D02*
X121713000Y-81529000D01*
X117065000Y-81489000D02*
X118400000Y-81489000D01*
X120360000Y-81489000D02*
X121695000Y-81489000D01*
X117084000Y-81449000D02*
X118400000Y-81449000D01*
X120360000Y-81449000D02*
X121676000Y-81449000D01*
X117104000Y-81409000D02*
X118400000Y-81409000D01*
X120360000Y-81409000D02*
X121656000Y-81409000D01*
X117124000Y-81369000D02*
X118400000Y-81369000D01*
X120360000Y-81369000D02*
X121636000Y-81369000D01*
X117146000Y-81329000D02*
X118400000Y-81329000D01*
X120360000Y-81329000D02*
X121614000Y-81329000D01*
X117168000Y-81289000D02*
X118400000Y-81289000D01*
X120360000Y-81289000D02*
X121592000Y-81289000D01*
X117191000Y-81249000D02*
X118400000Y-81249000D01*
X120360000Y-81249000D02*
X121569000Y-81249000D01*
X117215000Y-81209000D02*
X118400000Y-81209000D01*
X120360000Y-81209000D02*
X121545000Y-81209000D01*
X117240000Y-81169000D02*
X118400000Y-81169000D01*
X120360000Y-81169000D02*
X121520000Y-81169000D01*
X117267000Y-81129000D02*
X118400000Y-81129000D01*
X120360000Y-81129000D02*
X121493000Y-81129000D01*
X117294000Y-81089000D02*
X118400000Y-81089000D01*
X120360000Y-81089000D02*
X121466000Y-81089000D01*
X117322000Y-81049000D02*
X118400000Y-81049000D01*
X120360000Y-81049000D02*
X121438000Y-81049000D01*
X117352000Y-81009000D02*
X118400000Y-81009000D01*
X120360000Y-81009000D02*
X121408000Y-81009000D01*
X117383000Y-80969000D02*
X118400000Y-80969000D01*
X120360000Y-80969000D02*
X121377000Y-80969000D01*
X117415000Y-80929000D02*
X118400000Y-80929000D01*
X120360000Y-80929000D02*
X121345000Y-80929000D01*
X117448000Y-80889000D02*
X118400000Y-80889000D01*
X120360000Y-80889000D02*
X121312000Y-80889000D01*
X117483000Y-80849000D02*
X118400000Y-80849000D01*
X120360000Y-80849000D02*
X121277000Y-80849000D01*
X117519000Y-80809000D02*
X118400000Y-80809000D01*
X120360000Y-80809000D02*
X121241000Y-80809000D01*
X117557000Y-80769000D02*
X118400000Y-80769000D01*
X120360000Y-80769000D02*
X121203000Y-80769000D01*
X117597000Y-80729000D02*
X118400000Y-80729000D01*
X120360000Y-80729000D02*
X121163000Y-80729000D01*
X117638000Y-80689000D02*
X118400000Y-80689000D01*
X120360000Y-80689000D02*
X121122000Y-80689000D01*
X117681000Y-80649000D02*
X118400000Y-80649000D01*
X120360000Y-80649000D02*
X121079000Y-80649000D01*
X117726000Y-80609000D02*
X118400000Y-80609000D01*
X120360000Y-80609000D02*
X121034000Y-80609000D01*
X117774000Y-80569000D02*
X118400000Y-80569000D01*
X120360000Y-80569000D02*
X120986000Y-80569000D01*
X117824000Y-80529000D02*
X118400000Y-80529000D01*
X120360000Y-80529000D02*
X120936000Y-80529000D01*
X117876000Y-80489000D02*
X118400000Y-80489000D01*
X120360000Y-80489000D02*
X120884000Y-80489000D01*
X117932000Y-80449000D02*
X118400000Y-80449000D01*
X120360000Y-80449000D02*
X120828000Y-80449000D01*
X117990000Y-80409000D02*
X118400000Y-80409000D01*
X120360000Y-80409000D02*
X120770000Y-80409000D01*
X118053000Y-80369000D02*
X118400000Y-80369000D01*
X120360000Y-80369000D02*
X120707000Y-80369000D01*
X118119000Y-80329000D02*
X120641000Y-80329000D01*
X118191000Y-80289000D02*
X120569000Y-80289000D01*
X118268000Y-80249000D02*
X120492000Y-80249000D01*
X118352000Y-80209000D02*
X120408000Y-80209000D01*
X118446000Y-80169000D02*
X120314000Y-80169000D01*
X118551000Y-80129000D02*
X120209000Y-80129000D01*
X118673000Y-80089000D02*
X120087000Y-80089000D01*
X118821000Y-80049000D02*
X119939000Y-80049000D01*
X119026000Y-80009000D02*
X119734000Y-80009000D01*
X119380000Y-86020000D02*
X119380000Y-84820000D01*
X118730000Y-85420000D02*
X120030000Y-85420000D01*
D12*
X136961000Y-74974000D02*
X136961000Y-74774000D01*
X136961000Y-72380000D02*
X136961000Y-72560000D01*
X140188744Y-72690357D02*
G75*
G03X136961000Y-72374000I-1727744J-1003643D01*
G01*
X139513006Y-72560932D02*
G75*
G03X137410000Y-72560000I-1052006J-1133068D01*
G01*
X136973780Y-75000726D02*
G75*
G03X140211000Y-74654000I1497220J1306726D01*
G01*
X137447111Y-74773253D02*
G75*
G03X139495000Y-74754000I1013889J1079253D01*
G01*
D11*
X113775000Y-73570000D02*
X113775000Y-74020000D01*
X111925000Y-73570000D02*
X113775000Y-73570000D01*
X109375000Y-81370000D02*
X109625000Y-81370000D01*
X109375000Y-73570000D02*
X109625000Y-73570000D01*
X111925000Y-81370000D02*
X113775000Y-81370000D01*
X113775000Y-81370000D02*
X113775000Y-80920000D01*
X114325000Y-75770000D02*
X114325000Y-76220000D01*
X114325000Y-75770000D02*
X113875000Y-75770000D01*
X144085000Y-80070000D02*
X146745000Y-80070000D01*
X144085000Y-77470000D02*
X144085000Y-80070000D01*
X146745000Y-77470000D02*
X146745000Y-80070000D01*
X144085000Y-77470000D02*
X146745000Y-77470000D01*
X144085000Y-76200000D02*
X144085000Y-74870000D01*
X144085000Y-74870000D02*
X145415000Y-74870000D01*
X139470000Y-83820000D02*
G75*
G03X139470000Y-83820000I-2310000J0D01*
G01*
X137160000Y-81510000D02*
X137160000Y-80240000D01*
X132160000Y-72985000D02*
X132160000Y-83225000D01*
X127519000Y-72985000D02*
X127519000Y-83225000D01*
X132160000Y-72985000D02*
X127519000Y-72985000D01*
X132160000Y-83225000D02*
X127519000Y-83225000D01*
X130650000Y-72985000D02*
X130650000Y-83225000D01*
X132160000Y-76255000D02*
X130650000Y-76255000D01*
X132160000Y-79956000D02*
X130650000Y-79956000D01*
D12*
X123547143Y-75076666D02*
X123594762Y-75124285D01*
X123642381Y-75267142D01*
X123642381Y-75362380D01*
X123594762Y-75505238D01*
X123499524Y-75600476D01*
X123404286Y-75648095D01*
X123213810Y-75695714D01*
X123070952Y-75695714D01*
X122880476Y-75648095D01*
X122785238Y-75600476D01*
X122690000Y-75505238D01*
X122642381Y-75362380D01*
X122642381Y-75267142D01*
X122690000Y-75124285D01*
X122737619Y-75076666D01*
X123642381Y-74124285D02*
X123642381Y-74695714D01*
X123642381Y-74410000D02*
X122642381Y-74410000D01*
X122785238Y-74505238D01*
X122880476Y-74600476D01*
X122928095Y-74695714D01*
X115927143Y-82736666D02*
X115974762Y-82784285D01*
X116022381Y-82927142D01*
X116022381Y-83022380D01*
X115974762Y-83165238D01*
X115879524Y-83260476D01*
X115784286Y-83308095D01*
X115593810Y-83355714D01*
X115450952Y-83355714D01*
X115260476Y-83308095D01*
X115165238Y-83260476D01*
X115070000Y-83165238D01*
X115022381Y-83022380D01*
X115022381Y-82927142D01*
X115070000Y-82784285D01*
X115117619Y-82736666D01*
X115117619Y-82355714D02*
X115070000Y-82308095D01*
X115022381Y-82212857D01*
X115022381Y-81974761D01*
X115070000Y-81879523D01*
X115117619Y-81831904D01*
X115212857Y-81784285D01*
X115308095Y-81784285D01*
X115450952Y-81831904D01*
X116022381Y-82403333D01*
X116022381Y-81784285D01*
X138331905Y-77172381D02*
X138331905Y-76172381D01*
X138570000Y-76172381D01*
X138712858Y-76220000D01*
X138808096Y-76315238D01*
X138855715Y-76410476D01*
X138903334Y-76600952D01*
X138903334Y-76743810D01*
X138855715Y-76934286D01*
X138808096Y-77029524D01*
X138712858Y-77124762D01*
X138570000Y-77172381D01*
X138331905Y-77172381D01*
X139855715Y-77172381D02*
X139284286Y-77172381D01*
X139570000Y-77172381D02*
X139570000Y-76172381D01*
X139474762Y-76315238D01*
X139379524Y-76410476D01*
X139284286Y-76458095D01*
X135208095Y-75852381D02*
X135208095Y-74852381D01*
X135779524Y-75852381D02*
X135350952Y-75280952D01*
X135779524Y-74852381D02*
X135208095Y-75423810D01*
X114577381Y-77803333D02*
X115291667Y-77803333D01*
X115434524Y-77850953D01*
X115529762Y-77946191D01*
X115577381Y-78089048D01*
X115577381Y-78184286D01*
X115577381Y-76803333D02*
X115577381Y-77374762D01*
X115577381Y-77089048D02*
X114577381Y-77089048D01*
X114720238Y-77184286D01*
X114815476Y-77279524D01*
X114863095Y-77374762D01*
X145081667Y-73322381D02*
X145081667Y-74036667D01*
X145034047Y-74179524D01*
X144938809Y-74274762D01*
X144795952Y-74322381D01*
X144700714Y-74322381D01*
X145510238Y-73417619D02*
X145557857Y-73370000D01*
X145653095Y-73322381D01*
X145891191Y-73322381D01*
X145986429Y-73370000D01*
X146034048Y-73417619D01*
X146081667Y-73512857D01*
X146081667Y-73608095D01*
X146034048Y-73750952D01*
X145462619Y-74322381D01*
X146081667Y-74322381D01*
X134302381Y-81446666D02*
X133826190Y-81780000D01*
X134302381Y-82018095D02*
X133302381Y-82018095D01*
X133302381Y-81637142D01*
X133350000Y-81541904D01*
X133397619Y-81494285D01*
X133492857Y-81446666D01*
X133635714Y-81446666D01*
X133730952Y-81494285D01*
X133778571Y-81541904D01*
X133826190Y-81637142D01*
X133826190Y-82018095D01*
X134302381Y-80494285D02*
X134302381Y-81065714D01*
X134302381Y-80780000D02*
X133302381Y-80780000D01*
X133445238Y-80875238D01*
X133540476Y-80970476D01*
X133588095Y-81065714D01*
X132612381Y-78866905D02*
X133421905Y-78866905D01*
X133517143Y-78819286D01*
X133564762Y-78771667D01*
X133612381Y-78676429D01*
X133612381Y-78485952D01*
X133564762Y-78390714D01*
X133517143Y-78343095D01*
X133421905Y-78295476D01*
X132612381Y-78295476D01*
X133612381Y-77295476D02*
X133612381Y-77866905D01*
X133612381Y-77581191D02*
X132612381Y-77581191D01*
X132755238Y-77676429D01*
X132850476Y-77771667D01*
X132898095Y-77866905D01*
M02*
