G04 #@! TF.FileFunction,Legend,Bot*
%FSLAX46Y46*%
G04 Gerber Fmt 4.6, Leading zero omitted, Abs format (unit mm)*
G04 Created by KiCad (PCBNEW 4.0.7) date Friday, 14 September '14e' 2018 'PM' 'le44' 22:03:44*
%MOMM*%
%LPD*%
G01*
G04 APERTURE LIST*
%ADD10C,0.100000*%
%ADD11C,0.120000*%
%ADD12C,0.150000*%
G04 APERTURE END LIST*
D10*
D11*
X150435000Y-74870000D02*
X153095000Y-74870000D01*
X150435000Y-77470000D02*
X150435000Y-74870000D01*
X153095000Y-77470000D02*
X153095000Y-74870000D01*
X150435000Y-77470000D02*
X153095000Y-77470000D01*
X150435000Y-78740000D02*
X150435000Y-80070000D01*
X150435000Y-80070000D02*
X151765000Y-80070000D01*
X156150000Y-74870000D02*
X158810000Y-74870000D01*
X156150000Y-77470000D02*
X156150000Y-74870000D01*
X158810000Y-77470000D02*
X158810000Y-74870000D01*
X156150000Y-77470000D02*
X158810000Y-77470000D01*
X156150000Y-78740000D02*
X156150000Y-80070000D01*
X156150000Y-80070000D02*
X157480000Y-80070000D01*
D12*
X152098333Y-80522381D02*
X152098333Y-81236667D01*
X152145953Y-81379524D01*
X152241191Y-81474762D01*
X152384048Y-81522381D01*
X152479286Y-81522381D01*
X151717381Y-80522381D02*
X151098333Y-80522381D01*
X151431667Y-80903333D01*
X151288809Y-80903333D01*
X151193571Y-80950952D01*
X151145952Y-80998571D01*
X151098333Y-81093810D01*
X151098333Y-81331905D01*
X151145952Y-81427143D01*
X151193571Y-81474762D01*
X151288809Y-81522381D01*
X151574524Y-81522381D01*
X151669762Y-81474762D01*
X151717381Y-81427143D01*
X157813333Y-80522381D02*
X157813333Y-81236667D01*
X157860953Y-81379524D01*
X157956191Y-81474762D01*
X158099048Y-81522381D01*
X158194286Y-81522381D01*
X156908571Y-80855714D02*
X156908571Y-81522381D01*
X157146667Y-80474762D02*
X157384762Y-81189048D01*
X156765714Y-81189048D01*
M02*
